# xmcd
#
# Track frame offsets:
#  150
#  25704
#  34268
#  45528
#  62745
#  76585
#  88748
#  103428
#  117138
#  135245
#  150199
#  162803
#  177209
#  195559
#  208602
#  228605
#  244884
#  260270
#
# Disc length: 3738 seconds
#
# Revision: 4
# Processed by: cddbd v1.5.2PL0 Copyright (c) Steve Scherf et al.
# Submitted via: AltoMP3_Maker 3.0
#
DISCID=df0e9812
DTITLE=Raça Negra - Raça Negra - Ao Vivo
DYEAR=1900
DGENRE=
TTITLE0=Faixa 01 - Extrapolei - Perdi Você
TTITLE1=Faixa 02 - É O Amor
TTITLE2=Faixa 03 - Maravilha
TTITLE3=Faixa 04 - Só Sei Que Vou
TTITLE4=Faixa 05 - Preciso Ter Alguém
TTITLE5=Faixa 06 - Te Quero Comigo
TTITLE6=Faixa 07 - Quando Te Encontrei
TTITLE7=Faixa 08 - Assim
TTITLE8=Faixa 09 - Nosso Amor É Perfeito
TTITLE9=Faixa 10 - Deus Me Livre
TTITLE10=Faixa 11 - Vida Cigana
TTITLE11=Faixa 12 - Correnteza De Emoção
TTITLE12=Faixa 13 - Você Não Sabe De Mim
TTITLE13=Faixa 14 - Dou A Vida por Um Beijo
TTITLE14=Faixa 15 - Do Fundo Do Meu Coração
TTITLE15=Faixa 16 - Preciso Desse Amor
TTITLE16=Faixa 17 - É Tarde Demais
TTITLE17=Faixa 18 - Cheia De Manias
EXTD=
EXTT0=
EXTT1=
EXTT2=
EXTT3=
EXTT4=
EXTT5=
EXTT6=
EXTT7=
EXTT8=
EXTT9=
EXTT10=
EXTT11=
EXTT12=
EXTT13=
EXTT14=
EXTT15=
EXTT16=
EXTT17=
PLAYORDER=
